<svg width="56" height="56" viewBox="0 0 56 56" fill="none" xmlns="http://www.w3.org/2000/svg">
<path d="M28.25 55.4766C35.8439 55.4766 42 49.3205 42 41.7266C49.5939 41.7266 55.75 35.5705 55.75 27.9766C55.75 20.3826 49.5939 14.2266 42 14.2266C42 6.63265 35.8439 0.476562 28.25 0.476562C20.6561 0.476562 14.5 6.63265 14.5 14.2266C6.90609 14.2266 0.75 20.3826 0.75 27.9766C0.75 35.5705 6.90609 41.7266 14.5 41.7266C14.5 49.3205 20.6561 55.4766 28.25 55.4766ZM38.5625 14.2266C38.5625 14.478 38.5292 14.761 38.4576 15.0749C36.5902 15.9057 34.7091 17.268 32.9656 18.803C31.5524 18.075 29.9492 17.6641 28.25 17.6641C26.5508 17.6641 24.9476 18.075 23.5344 18.803C21.7908 17.268 19.9098 15.9057 18.0424 15.0749C17.9709 14.761 17.9375 14.478 17.9375 14.2266C17.9375 8.53113 22.5546 3.91406 28.25 3.91406C33.9454 3.91406 38.5625 8.53113 38.5625 14.2266ZM35.7723 35.0309C37.5027 33.1864 38.5625 30.7053 38.5625 27.9766C38.5625 25.2479 37.5027 22.7667 35.7723 20.9222C36.5105 20.3009 37.2562 19.7342 37.9948 19.2502C39.7308 18.1127 41.0779 17.6641 42 17.6641C47.6954 17.6641 52.3125 22.2811 52.3125 27.9766C52.3125 33.672 47.6954 38.2891 42 38.2891C41.0779 38.2891 39.7308 37.8404 37.9948 36.7029C37.2561 36.2189 36.5105 35.6522 35.7723 35.0309ZM23.5344 37.1502C24.9476 37.8781 26.5508 38.2891 28.25 38.2891C29.9492 38.2891 31.5524 37.8781 32.9656 37.1502C34.7091 38.6852 36.5902 40.0474 38.4576 40.8783C38.5292 41.1921 38.5625 41.4751 38.5625 41.7266C38.5625 47.422 33.9454 52.0391 28.25 52.0391C22.5546 52.0391 17.9375 47.422 17.9375 41.7266C17.9375 41.4751 17.9709 41.1921 18.0424 40.8783C19.9098 40.0474 21.7908 38.6852 23.5344 37.1502ZM20.7277 20.9222C18.9973 22.7667 17.9375 25.2479 17.9375 27.9766C17.9375 30.7053 18.9973 33.1864 20.7277 35.0309C19.9895 35.6522 19.2439 36.2189 18.5052 36.7029C16.7692 37.8404 15.4221 38.2891 14.5 38.2891C8.80456 38.2891 4.1875 33.672 4.1875 27.9766C4.1875 22.2811 8.80456 17.6641 14.5 17.6641C15.4221 17.6641 16.7692 18.1127 18.5052 19.2502C19.2438 19.7342 19.9895 20.3009 20.7277 20.9222ZM28.25 31.4141C26.3515 31.4141 24.8125 29.875 24.8125 27.9766C24.8125 26.0781 26.3515 24.5391 28.25 24.5391C30.1485 24.5391 31.6875 26.0781 31.6875 27.9766C31.6875 29.875 30.1485 31.4141 28.25 31.4141Z" fill="#2373BA"/>
</svg>
