<svg width="56" height="56" viewBox="0 0 56 56" fill="none" xmlns="http://www.w3.org/2000/svg">
<path fill-rule="evenodd" clip-rule="evenodd" d="M43.5521 8.72461C42.6704 8.72461 41.8249 9.07485 41.2015 9.69828L41.1848 9.71461L34.3098 16.3604C33.9414 16.7166 33.4055 16.8383 32.9194 16.6763L16.5381 11.2158L12.7166 15.0373L25.9852 22.182C26.3679 22.3881 26.6307 22.763 26.6938 23.193C26.7569 23.623 26.613 24.0576 26.3056 24.3649L19.4306 31.2399C19.1728 31.4978 18.823 31.6427 18.4584 31.6427H12.1529L9.54547 34.2501L17.7473 36.9841C18.1579 37.1209 18.4801 37.4431 18.617 37.8537L21.3509 46.0556L23.9584 43.4481V37.1427C23.9584 36.778 24.1032 36.4283 24.3611 36.1704L31.2361 29.2954C31.544 28.9875 31.9795 28.8437 32.4102 28.9076C32.8409 28.9715 33.2159 29.2356 33.4211 29.6197L40.5589 42.9777L44.3882 39.0719L38.9248 22.6817C38.7627 22.1955 38.8844 21.6596 39.2406 21.2912L45.8864 14.4162L45.9028 14.3996C46.5262 13.7761 46.8764 12.9306 46.8764 12.0489C46.8764 11.1673 46.5262 10.3217 45.9028 9.69828C45.2793 9.07485 44.4338 8.72461 43.5521 8.72461ZM39.2657 7.74499C40.404 6.6113 41.9452 5.97461 43.5521 5.97461C45.1631 5.97461 46.7081 6.61458 47.8473 7.75373C48.9864 8.89289 49.6264 10.4379 49.6264 12.0489C49.6264 13.6558 48.9897 15.197 47.8561 16.3353L41.7973 22.603L47.2628 38.9995C47.4259 39.489 47.3014 40.0285 46.9402 40.3969L41.211 46.2407C40.9045 46.5533 40.4675 46.7013 40.0341 46.6392C39.6007 46.5771 39.2228 46.3123 39.0165 45.9261L31.8695 32.5511L26.7084 37.7122V44.0177C26.7084 44.3823 26.5635 44.7321 26.3056 44.9899L21.7223 49.5733C21.3853 49.9102 20.8979 50.0487 20.4341 49.9392C19.9703 49.8297 19.5963 49.4879 19.4456 49.0358L16.2255 39.3755L6.56521 36.1554C6.11312 36.0047 5.7713 35.6307 5.66181 35.1669C5.55232 34.7031 5.69079 34.2157 6.02776 33.8787L10.6111 29.2954C10.869 29.0375 11.2187 28.8927 11.5834 28.8927H17.8888L23.0543 23.7272L9.78564 16.5825C9.40295 16.3764 9.14022 16.0015 9.0771 15.5715C9.01399 15.1415 9.15791 14.7069 9.46526 14.3996L15.1944 8.6704C15.5627 8.30213 16.1074 8.17354 16.6015 8.33823L32.998 13.8037L39.2657 7.74499Z" fill="#2373BA"/>
</svg>
