<svg width="56" height="56" viewBox="0 0 56 56" fill="none" xmlns="http://www.w3.org/2000/svg">
<path fill-rule="evenodd" clip-rule="evenodd" d="M11.7083 11.3623C10.1263 11.3623 8.84375 12.6448 8.84375 14.2269C8.84375 15.809 10.1263 17.0915 11.7083 17.0915H43.7917C45.3737 17.0915 46.6562 15.809 46.6562 14.2269C46.6562 12.6448 45.3737 11.3623 43.7917 11.3623H11.7083ZM5.40625 14.2269C5.40625 10.7463 8.22779 7.9248 11.7083 7.9248H43.7917C47.2722 7.9248 50.0938 10.7463 50.0938 14.2269C50.0938 17.1116 48.1556 19.5436 45.5104 20.2917V41.7269C45.5104 43.3983 44.8464 45.0013 43.6646 46.1831C42.4827 47.365 40.8798 48.029 39.2083 48.029H16.2917C14.6202 48.029 13.0173 47.365 11.8354 46.1831C10.6536 45.0013 9.98958 43.3983 9.98958 41.7269V20.2917C7.34442 19.5436 5.40625 17.1116 5.40625 14.2269ZM13.4271 20.529V41.7269C13.4271 42.4866 13.7289 43.2152 14.2661 43.7525C14.8033 44.2897 15.5319 44.5915 16.2917 44.5915H39.2083C39.9681 44.5915 40.6967 44.2897 41.2339 43.7525C41.7711 43.2152 42.0729 42.4866 42.0729 41.7269V20.529H13.4271ZM21.4479 27.9769C21.4479 27.0276 22.2174 26.2581 23.1667 26.2581H32.3333C33.2826 26.2581 34.0521 27.0276 34.0521 27.9769C34.0521 28.9261 33.2826 29.6956 32.3333 29.6956H23.1667C22.2174 29.6956 21.4479 28.9261 21.4479 27.9769Z" fill="#2373BA"/>
</svg>
