<svg width="56" height="56" viewBox="0 0 56 56" fill="none" xmlns="http://www.w3.org/2000/svg">
<path fill-rule="evenodd" clip-rule="evenodd" d="M18.4243 4.10636C18.9508 3.31655 20.0179 3.10312 20.8077 3.62967C22.8896 5.01756 24.4927 7.33364 25.5655 9.6324C26.6418 11.9387 27.3023 14.4812 27.3023 16.5181C27.3023 17.4673 26.5328 18.2368 25.5835 18.2368C24.6343 18.2368 23.8648 17.4673 23.8648 16.5181C23.8648 15.1174 23.3794 13.0766 22.4505 11.0861C21.518 9.08795 20.2566 7.39361 18.901 6.48984C18.1111 5.9633 17.8977 4.89618 18.4243 4.10636ZM27.9898 3.68475C28.7492 3.11521 29.8265 3.26911 30.396 4.0285C33.9864 8.81562 35.3231 12.6065 35.3231 16.5181C35.3231 17.4673 34.5536 18.2368 33.6044 18.2368C32.6551 18.2368 31.8856 17.4673 31.8856 16.5181C31.8856 13.5547 30.9307 10.4706 27.646 6.091C27.0765 5.33161 27.2304 4.2543 27.9898 3.68475ZM37.9035 9.8354C38.4301 9.04563 39.4973 8.83231 40.287 9.35892C42.7871 11.026 44.9253 13.1802 46.5736 15.6928C48.0935 18.0096 49.1681 20.5873 49.7446 23.2935C50.5743 23.9606 51.2538 24.7999 51.7341 25.7567C52.3297 26.9433 52.5973 28.2675 52.5092 29.5922C52.421 30.9169 51.9804 32.1939 51.233 33.2911C50.6303 34.1758 49.8457 34.9177 48.9351 35.469C47.4294 39.6946 44.6841 43.3749 41.0505 46.0239C37.2276 48.8109 32.6187 50.3125 27.8878 50.3125C23.1568 50.3125 18.548 48.8109 14.7251 46.0239C11.0915 43.3749 8.3462 39.6946 6.84046 35.469C5.92983 34.9177 5.1453 34.1758 4.54261 33.2911C3.79513 32.1939 3.35453 30.9169 3.26642 29.5922C3.17831 28.2675 3.44589 26.9433 4.04146 25.7567C4.52174 24.7999 5.20123 23.9606 6.03097 23.2935C6.59507 20.6454 7.63623 18.1199 9.10548 15.8411C10.7015 13.3656 12.7712 11.2302 15.1956 9.55754C15.9769 9.01848 17.0473 9.21487 17.5864 9.99619C18.1254 10.7775 17.929 11.8479 17.1477 12.387C15.0963 13.8023 13.345 15.6092 11.9945 17.7038C10.644 19.7984 9.721 22.1394 9.2785 24.592C9.19408 25.0599 8.9196 25.472 8.52032 25.7301C7.92001 26.1183 7.43437 26.6599 7.11367 27.2988C6.79298 27.9377 6.6489 28.6507 6.69634 29.364C6.74379 30.0773 6.98103 30.765 7.38352 31.3558C7.786 31.9466 8.3391 32.4191 8.98553 32.7243C9.41571 32.9274 9.74245 33.2998 9.88799 33.7527C11.1126 37.5639 13.5154 40.888 16.7501 43.2462C19.9849 45.6044 23.8847 46.875 27.8878 46.875C31.8909 46.875 35.7907 45.6044 39.0254 43.2462C42.2602 40.888 44.6629 37.5639 45.8876 33.7527C46.0331 33.2998 46.3599 32.9274 46.7901 32.7243C47.4365 32.4191 47.9896 31.9466 48.3921 31.3558C48.7945 30.765 49.0318 30.0773 49.0792 29.364C49.1267 28.6507 48.9826 27.9377 48.6619 27.2988C48.3412 26.6599 47.8556 26.1183 47.2553 25.7301C46.856 25.472 46.5815 25.0599 46.4971 24.592C46.0456 22.0898 45.0941 19.7043 43.6994 17.5783C42.3047 15.4523 40.4955 13.6295 38.38 12.2189C37.5902 11.6923 37.3769 10.6252 37.9035 9.8354ZM19.2814 27.9764C19.2814 27.0272 20.0509 26.2577 21.0002 26.2577H21.0231C21.9723 26.2577 22.7419 27.0272 22.7419 27.9764C22.7419 28.9257 21.9723 29.6952 21.0231 29.6952H21.0002C20.0509 29.6952 19.2814 28.9257 19.2814 27.9764ZM33.0314 27.9764C33.0314 27.0272 33.8009 26.2577 34.7502 26.2577H34.7731C35.7223 26.2577 36.4919 27.0272 36.4919 27.9764C36.4919 28.9257 35.7223 29.6952 34.7731 29.6952H34.7502C33.8009 29.6952 33.0314 28.9257 33.0314 27.9764ZM20.9431 35.9154C21.6212 35.2511 22.7094 35.2622 23.3737 35.9402C23.9605 36.5391 24.6608 37.0149 25.4338 37.3397C26.2068 37.6645 27.0368 37.8318 27.8752 37.8318C28.7136 37.8318 29.5436 37.6645 30.3166 37.3397C31.0895 37.0149 31.7899 36.5391 32.3767 35.9402C33.041 35.2622 34.1292 35.2511 34.8072 35.9154C35.4853 36.5797 35.4964 37.6679 34.832 38.346C33.9252 39.2715 32.8428 40.0068 31.6482 40.5087C30.4537 41.0107 29.1709 41.2693 27.8752 41.2693C26.5794 41.2693 25.2967 41.0107 24.1021 40.5087C22.9076 40.0068 21.8252 39.2715 20.9183 38.346C20.254 37.6679 20.2651 36.5797 20.9431 35.9154Z" fill="#2373BA"/>
</svg>
