<svg width="25" height="24" viewBox="0 0 25 24" fill="none" xmlns="http://www.w3.org/2000/svg">
<path d="M11.3138 1.20049C12.0339 0.441767 12.5 0 12.5 0C12.6633 0.544381 12.8503 1.06257 13.0568 1.55741C14.2741 4.47563 16.1664 6.58168 17.8512 8.45686C19.8168 10.6445 21.5 12.5179 21.5 15C21.5 19.9706 17.4706 24 12.5 24C7.52944 24 3.5 19.9706 3.5 15C3.5 10.002 8.86969 3.77564 11.3138 1.20049ZM11.9351 2.73192C11.1507 3.58221 10.1695 4.70628 9.19137 5.98493C8.10131 7.40985 7.03737 8.99775 6.25134 10.5904C5.45721 12.1994 5 13.7071 5 15C5 15 8.75 17.25 12.5 15.75C16.25 14.25 20 15 20 15C20 13.1981 18.8064 11.7643 16.728 9.45105L16.6837 9.4018C15.1233 7.66519 13.2493 5.5796 11.9351 2.73192Z" fill="#0461A3"/>
<path d="M7.32918 11.6646C8.56032 9.20231 9.90539 7.53395 10.4697 6.96967L11.5303 8.03033C11.0946 8.46605 9.83968 9.99769 8.67082 12.3354L7.32918 11.6646Z" fill="#0461A3"/>
</svg>
