<svg width="18" height="19" viewBox="0 0 18 19" fill="none" xmlns="http://www.w3.org/2000/svg">
<path d="M10.0575 9.50014L14.7825 4.78264C14.9237 4.64141 15.003 4.44987 15.003 4.25014C15.003 4.05041 14.9237 3.85887 14.7825 3.71764C14.6412 3.57641 14.4497 3.49707 14.25 3.49707C14.0502 3.49707 13.8587 3.57641 13.7175 3.71764L8.99995 8.44264L4.28245 3.71764C4.14123 3.57641 3.94968 3.49707 3.74995 3.49707C3.55023 3.49707 3.35868 3.57641 3.21745 3.71764C3.07623 3.85887 2.99689 4.05041 2.99689 4.25014C2.99689 4.44987 3.07623 4.64141 3.21745 4.78264L7.94245 9.50014L3.21745 14.2176C3.14716 14.2874 3.09136 14.3703 3.05329 14.4617C3.01521 14.5531 2.99561 14.6511 2.99561 14.7501C2.99561 14.8491 3.01521 14.9472 3.05329 15.0386C3.09136 15.13 3.14716 15.2129 3.21745 15.2826C3.28718 15.3529 3.37013 15.4087 3.46152 15.4468C3.55292 15.4849 3.65095 15.5045 3.74995 15.5045C3.84896 15.5045 3.94699 15.4849 4.03839 15.4468C4.12978 15.4087 4.21273 15.3529 4.28245 15.2826L8.99995 10.5576L13.7175 15.2826C13.7872 15.3529 13.8701 15.4087 13.9615 15.4468C14.0529 15.4849 14.1509 15.5045 14.25 15.5045C14.349 15.5045 14.447 15.4849 14.5384 15.4468C14.6298 15.4087 14.7127 15.3529 14.7825 15.2826C14.8527 15.2129 14.9085 15.13 14.9466 15.0386C14.9847 14.9472 15.0043 14.8491 15.0043 14.7501C15.0043 14.6511 14.9847 14.5531 14.9466 14.4617C14.9085 14.3703 14.8527 14.2874 14.7825 14.2176L10.0575 9.50014Z" fill="white"/>
</svg>
