<svg width="18" height="18" viewBox="0 0 18 18" fill="none" xmlns="http://www.w3.org/2000/svg">
<path d="M4.5 0C3.25736 0 2.25 1.00736 2.25 2.25V15.75C2.25 16.9926 3.25736 18 4.5 18H13.5C14.7426 18 15.75 16.9926 15.75 15.75V2.25C15.75 1.00736 14.7426 0 13.5 0H4.5ZM4.5 1.125H13.5C14.1213 1.125 14.625 1.62868 14.625 2.25V15.75C14.625 16.3713 14.1213 16.875 13.5 16.875H4.5C3.87868 16.875 3.375 16.3713 3.375 15.75V2.25C3.375 1.62868 3.87868 1.125 4.5 1.125Z" fill="#393939"/>
<path d="M5.17845 13.5975C4.94427 13.512 4.78689 13.3294 4.68527 13.1262C4.4665 12.6887 4.53913 12.2524 4.77604 11.8851C4.99859 11.5401 5.36743 11.2468 5.78425 11.0006C6.25348 10.7235 6.83132 10.4784 7.45212 10.275C7.68511 9.85678 7.91313 9.41227 8.12646 8.96049C8.31574 8.55966 8.49104 8.15823 8.64652 7.76956C8.43097 7.26619 8.262 6.7687 8.16342 6.3128C8.06599 5.86227 8.02922 5.41656 8.11071 5.03429C8.19557 4.63627 8.41898 4.27808 8.84337 4.10832C9.05888 4.02212 9.29246 3.97291 9.51991 4.02155C9.76879 4.07477 9.94854 4.23159 10.0563 4.4324C10.1555 4.6174 10.1914 4.83248 10.1991 5.03804C10.2069 5.24866 10.1861 5.48266 10.1459 5.72822C10.0522 6.30185 9.84162 7.00466 9.56067 7.74715C9.72726 8.10465 9.9187 8.46649 10.1264 8.81702C10.299 9.10818 10.4797 9.38637 10.663 9.64372C11.2198 9.60849 11.737 9.62283 12.1647 9.69978C12.5741 9.77343 12.9904 9.91945 13.2446 10.2226C13.3806 10.3849 13.4616 10.583 13.4697 10.8061C13.4776 11.0218 13.4167 11.2351 13.3149 11.4386C13.2199 11.6287 13.0901 11.7932 12.916 11.9072C12.7382 12.0235 12.5405 12.0697 12.3427 12.0617C11.97 12.0468 11.6069 11.8415 11.2924 11.5931C10.9543 11.3261 10.605 10.9548 10.2678 10.5246C9.90752 10.5638 9.52805 10.6232 9.1432 10.7014C8.76242 10.7788 8.38389 10.8731 8.02139 10.981C7.64119 11.6371 7.24695 12.2284 6.87268 12.6795C6.54566 13.0737 6.18897 13.4174 5.83088 13.5649C5.64147 13.6429 5.41112 13.6824 5.17845 13.5975ZM6.72927 11.4591C6.54302 11.545 6.36993 11.6346 6.21334 11.7271C5.84441 11.945 5.60452 12.1573 5.48509 12.3425C5.38002 12.5054 5.37743 12.6238 5.43993 12.7488C5.45204 12.7731 5.46217 12.7887 5.46949 12.7984C5.47881 12.7961 5.49194 12.792 5.50946 12.7848C5.66334 12.7214 5.9087 12.52 6.22329 12.1408C6.38656 11.944 6.55654 11.7142 6.72927 11.4591ZM8.57473 9.96199C8.7082 9.93083 8.84187 9.90166 8.97515 9.87457C9.22009 9.82478 9.4666 9.78144 9.71105 9.74549C9.60437 9.58261 9.50059 9.41593 9.40059 9.2472C9.3099 9.09418 9.22156 8.93817 9.13633 8.78032C9.0566 8.96094 8.97409 9.14149 8.88943 9.32078C8.78797 9.53562 8.68276 9.75005 8.57473 9.96199ZM11.3267 10.4701C11.4949 10.652 11.6593 10.8077 11.8154 10.9309C12.086 11.1446 12.2741 11.2146 12.3766 11.2187C12.4164 11.2203 12.4373 11.212 12.454 11.2011C12.4742 11.1879 12.5146 11.1525 12.5602 11.0613C12.6188 10.9442 12.6278 10.8724 12.6265 10.8368C12.6255 10.8085 12.6182 10.7888 12.598 10.7647C12.5397 10.6952 12.372 10.5944 12.0153 10.5302C11.8151 10.4942 11.5828 10.4744 11.3267 10.4701ZM9.08821 6.52355C9.19154 6.18081 9.2685 5.86588 9.31324 5.59212C9.34781 5.38064 9.36101 5.20595 9.35593 5.06941C9.35148 4.94986 9.33371 4.88094 9.3199 4.84677C9.29275 4.84894 9.24076 4.85811 9.15673 4.89172C9.05887 4.93087 8.97847 5.0106 8.93592 5.21022C8.89 5.42559 8.90221 5.73724 8.98811 6.13447C9.01516 6.25957 9.04872 6.38962 9.08821 6.52355Z" fill="#393939"/>
</svg>
