<svg width="18" height="19" viewBox="0 0 18 19" fill="none" xmlns="http://www.w3.org/2000/svg">
<path fill-rule="evenodd" clip-rule="evenodd" d="M9 3.36364C5.61098 3.36364 2.86364 6.11098 2.86364 9.5C2.86364 12.889 5.61098 15.6364 9 15.6364C12.389 15.6364 15.1364 12.889 15.1364 9.5C15.1364 6.11098 12.389 3.36364 9 3.36364ZM1.5 9.5C1.5 5.35786 4.85786 2 9 2C13.1421 2 16.5 5.35786 16.5 9.5C16.5 13.6421 13.1421 17 9 17C4.85786 17 1.5 13.6421 1.5 9.5ZM8.31818 6.77273C8.31818 6.39617 8.62344 6.09091 9 6.09091H9.00682C9.38338 6.09091 9.68864 6.39617 9.68864 6.77273C9.68864 7.14928 9.38338 7.45455 9.00682 7.45455H9C8.62344 7.45455 8.31818 7.14928 8.31818 6.77273ZM9 8.81818C9.37656 8.81818 9.68182 9.12344 9.68182 9.5V12.2273C9.68182 12.6038 9.37656 12.9091 9 12.9091C8.62344 12.9091 8.31818 12.6038 8.31818 12.2273V9.5C8.31818 9.12344 8.62344 8.81818 9 8.81818Z" fill="white"/>
</svg>
