<svg width="120" height="20" viewBox="0 0 120 20" fill="none" xmlns="http://www.w3.org/2000/svg">
<path d="M116.387 4.58337C116.973 4.58337 117.507 4.73258 117.989 5.031C118.471 5.32009 118.851 5.72109 119.132 6.234C119.412 6.74691 119.552 7.31577 119.552 7.94059C119.552 8.55607 119.412 9.12027 119.132 9.63318C118.851 10.1461 118.471 10.5518 117.989 10.8502C117.507 11.1486 116.973 11.2978 116.387 11.2978C115.809 11.2978 115.279 11.1533 114.798 10.8642C114.316 10.5657 113.935 10.1647 113.655 9.66116C113.383 9.14825 113.248 8.58405 113.248 7.96856C113.248 7.35307 113.388 6.78887 113.668 6.27596C113.948 5.75373 114.325 5.34341 114.798 5.04499C115.279 4.73724 115.809 4.58337 116.387 4.58337ZM116.387 10.7942C116.877 10.7942 117.324 10.6683 117.726 10.4165C118.129 10.1647 118.444 9.82436 118.672 9.39538C118.908 8.95708 119.027 8.47214 119.027 7.94059C119.027 7.3997 118.913 6.91477 118.685 6.48579C118.457 6.04749 118.142 5.7071 117.739 5.46464C117.337 5.22217 116.886 5.10094 116.387 5.10094C115.905 5.10094 115.463 5.22684 115.06 5.47863C114.666 5.73042 114.351 6.07546 114.115 6.51377C113.887 6.95207 113.773 7.437 113.773 7.96856C113.773 8.50012 113.887 8.98505 114.115 9.42335C114.351 9.85233 114.666 10.1881 115.06 10.4305C115.463 10.673 115.905 10.7942 116.387 10.7942ZM117.7 7.12926C117.7 7.65149 117.42 7.99188 116.86 8.15041L117.831 9.80104H117.175L116.334 8.24833H115.848V9.80104H115.297V5.9962H116.203C117.201 5.9962 117.7 6.37388 117.7 7.12926ZM115.848 7.75873H116.36C116.877 7.75873 117.135 7.54891 117.135 7.12926C117.135 6.89612 117.065 6.73292 116.925 6.63966C116.785 6.53708 116.571 6.48579 116.282 6.48579H115.848V7.75873Z" fill="#0461A3"/>
<path d="M6.92872 2.42352C8.22055 2.42352 9.34905 2.76864 10.3142 3.45887C11.2942 4.13267 12.0515 5.12694 12.5861 6.44167C13.1355 7.7564 13.4102 9.35051 13.4102 11.224C13.4102 13.0646 13.1355 14.6423 12.5861 15.957C12.0515 17.2718 11.2942 18.2742 10.3142 18.9645C9.34905 19.6547 8.22055 19.9998 6.92872 19.9998C5.63688 19.9998 4.50096 19.6629 3.52094 18.9891C2.55578 18.3153 1.7985 17.3211 1.24909 16.0063C0.714542 14.6916 0.447266 13.1057 0.447266 11.2487C0.447266 9.42446 0.714542 7.84679 1.24909 6.51562C1.7985 5.18445 2.5632 4.17375 3.54322 3.48352C4.52323 2.77685 5.65173 2.42352 6.92872 2.42352ZM6.92872 4.34631C5.59233 4.34631 4.55293 4.90508 3.81049 6.0226C3.06806 7.14012 2.69684 8.88214 2.69684 11.2487C2.69684 13.5987 3.06806 15.3243 3.81049 16.4254C4.56778 17.5265 5.60718 18.077 6.92872 18.077C9.74997 18.077 11.1606 15.7927 11.1606 11.224C11.1606 6.63888 9.74997 4.34631 6.92872 4.34631Z" fill="#0461A3"/>
<path d="M25.4461 6.71283L21.8824 12.7277L25.8693 19.704H23.4416L20.1897 13.7138H18.6974V19.704H16.6483V6.71283H18.6974V11.9389H20.2342L23.1966 6.71283H25.4461Z" fill="#0461A3"/>
<path d="M36.0159 6.71283L35.7709 8.56167H32.0068V19.704H29.9576V8.56167H26.0821V6.71283H36.0159Z" fill="#0461A3"/>
<path d="M46.3234 12.8263C46.3234 13.2043 46.3086 13.5905 46.2789 13.9849H38.7952C38.8842 15.4147 39.2109 16.4665 39.7752 17.1403C40.3394 17.8141 41.067 18.151 41.9579 18.151C42.5222 18.151 43.0419 18.0606 43.517 17.8798C43.9922 17.6991 44.4896 17.4115 45.0093 17.017L45.9003 18.3729C44.653 19.4575 43.2869 19.9998 41.802 19.9998C40.1687 19.9998 38.8917 19.4082 37.971 18.2249C37.0653 17.0417 36.6124 15.4147 36.6124 13.344C36.6124 11.9964 36.8054 10.8049 37.1915 9.76958C37.5924 8.7178 38.1567 7.89609 38.8842 7.30446C39.6267 6.71283 40.4953 6.41702 41.4902 6.41702C43.0493 6.41702 44.2446 6.98399 45.0761 8.11795C45.9077 9.2519 46.3234 10.8214 46.3234 12.8263ZM44.2966 12.1607C44.2966 10.8789 44.0664 9.90105 43.6061 9.22725C43.1458 8.55345 42.4554 8.21655 41.5347 8.21655C39.8568 8.21655 38.9436 9.58059 38.7952 12.3087H44.2966V12.1607Z" fill="#0461A3"/>
<path d="M56.4114 19.704V13.9849H51.5336V19.704H49.4845V6.71283H51.5336V12.1607H56.4114V6.71283H58.4605V19.704H56.4114Z" fill="#0461A3"/>
<path d="M64.6251 6.71283V19.704H62.576V6.71283H64.6251ZM63.5782 0.476074C64.0089 0.476074 64.3578 0.623982 64.6251 0.919796C64.8923 1.21561 65.026 1.58538 65.026 2.0291C65.026 2.47282 64.8923 2.84259 64.6251 3.1384C64.3578 3.41778 64.0089 3.55747 63.5782 3.55747C63.1625 3.55747 62.821 3.41778 62.5537 3.1384C62.2864 2.84259 62.1528 2.47282 62.1528 2.0291C62.1528 1.58538 62.2864 1.21561 62.5537 0.919796C62.821 0.623982 63.1625 0.476074 63.5782 0.476074Z" fill="#0461A3"/>
<path d="M72.666 6.41702C73.3639 6.41702 74.0024 6.53206 74.5815 6.76214C75.1606 6.97578 75.7174 7.32911 76.252 7.82214L75.272 9.25191C74.8562 8.92323 74.4479 8.68493 74.0469 8.53702C73.6609 8.37268 73.2303 8.29051 72.7551 8.29051C71.8048 8.29051 71.0624 8.70958 70.5278 9.54772C70.0081 10.3859 69.7482 11.6266 69.7482 13.2701C69.7482 14.9135 70.0081 16.1296 70.5278 16.9184C71.0475 17.6908 71.7899 18.077 72.7551 18.077C73.2154 18.077 73.6386 18.0031 74.0247 17.8552C74.4107 17.6908 74.8413 17.4361 75.3165 17.091L76.252 18.5701C75.1829 19.5232 73.9875 19.9998 72.666 19.9998C71.0772 19.9998 69.8225 19.4082 68.9019 18.2249C67.9961 17.0417 67.5432 15.4065 67.5432 13.3194C67.5432 11.9389 67.7511 10.731 68.1669 9.69563C68.5826 8.66028 69.1692 7.85501 69.9264 7.27981C70.6986 6.70462 71.6118 6.41702 72.666 6.41702Z" fill="#0461A3"/>
<path d="M87.3441 12.8263C87.3441 13.2043 87.3293 13.5905 87.2996 13.9849H79.8158C79.9049 15.4147 80.2316 16.4665 80.7958 17.1403C81.3601 17.8141 82.0877 18.151 82.9786 18.151C83.5429 18.151 84.0626 18.0606 84.5377 17.8798C85.0129 17.6991 85.5103 17.4115 86.03 17.017L86.9209 18.3729C85.6736 19.4575 84.3076 19.9998 82.8227 19.9998C81.1893 19.9998 79.9123 19.4082 78.9917 18.2249C78.086 17.0417 77.6331 15.4147 77.6331 13.344C77.6331 11.9964 77.8261 10.8049 78.2122 9.76958C78.6131 8.7178 79.1773 7.89609 79.9049 7.30446C80.6474 6.71283 81.516 6.41702 82.5109 6.41702C84.07 6.41702 85.2653 6.984 86.0968 8.11795C86.9283 9.25191 87.3441 10.8214 87.3441 12.8263ZM85.3173 12.1607C85.3173 10.8789 85.0871 9.90106 84.6268 9.22726C84.1665 8.55346 83.476 8.21656 82.5554 8.21656C80.8775 8.21656 79.9643 9.58059 79.8158 12.3087H85.3173V12.1607Z" fill="#0461A3"/>
<path d="M97.3652 19.704V8.56168H92.5543V19.704H90.5051V6.71283H99.4144V19.704H97.3652Z" fill="#0461A3"/>
<path d="M111.461 6.71283L111.216 8.56168H107.451V19.704H105.402V8.56168H101.527V6.71283H111.461Z" fill="#0461A3"/>
</svg>
