<svg width="21" height="21" viewBox="0 0 21 21" fill="none" xmlns="http://www.w3.org/2000/svg">
<path d="M13.9644 10.5262L18.716 6.39797V14.6073L13.9644 10.5262ZM7.84153 11.2253L9.51013 12.6738C9.77201 12.8962 10.1135 13.0307 10.4866 13.0307H10.4997H10.4989H10.5098C10.8836 13.0307 11.2251 12.8955 11.4901 12.6714L11.4877 12.673L13.1563 11.2246L18.2286 15.5807H2.77161L7.84153 11.2253ZM2.76466 5.41921H18.2379L10.8056 11.8742C10.7221 11.9403 10.6186 11.9763 10.5121 11.9762H10.5013H10.502H10.4912C10.3843 11.9763 10.2805 11.9401 10.1969 11.8735L10.1977 11.8742L2.76466 5.41921ZM2.28493 6.3972L7.03581 10.5254L2.28493 14.6042V6.3972ZM18.971 4.51152C18.7856 4.41882 18.5677 4.36475 18.3367 4.36475H2.66655C2.44265 4.3648 2.22182 4.4169 2.02151 4.51693L2.03001 4.51307C1.7902 4.63134 1.58825 4.81433 1.44697 5.04134C1.30568 5.26835 1.23069 5.53035 1.23047 5.79773V15.2006C1.23088 15.5812 1.38223 15.946 1.65131 16.2151C1.9204 16.4842 2.28523 16.6355 2.66578 16.6359H18.3344C18.715 16.6355 19.0798 16.4842 19.3489 16.2151C19.618 15.946 19.7693 15.5812 19.7697 15.2006V5.79773C19.7697 5.23613 19.446 4.74945 18.9748 4.51538L18.9663 4.51152H18.971Z" fill="#7787A5"/>
</svg>
