<svg width="16" height="17" viewBox="0 0 16 17" fill="none" xmlns="http://www.w3.org/2000/svg">
<path d="M9.04941 0.934679C8.46984 0.355108 7.53017 0.355106 6.95059 0.934678L0.434679 7.45059C-0.144892 8.03016 -0.144894 8.96983 0.434678 9.54941L6.95059 16.0653C7.53016 16.6449 8.46983 16.6449 9.04941 16.0653L15.5653 9.54941C16.1449 8.96984 16.1449 8.03017 15.5653 7.45059L9.04941 0.934679ZM8 4.49997C8.53541 4.49997 8.95377 4.96225 8.9005 5.49501L8.54975 9.00245C8.52151 9.28489 8.28384 9.49997 8 9.49997C7.71616 9.49997 7.47849 9.28489 7.45025 9.00245L7.0995 5.49501C7.04623 4.96225 7.46459 4.49997 8 4.49997ZM8.00154 10.5C8.55383 10.5 9.00154 10.9477 9.00154 11.5C9.00154 12.0523 8.55383 12.5 8.00154 12.5C7.44926 12.5 7.00154 12.0523 7.00154 11.5C7.00154 10.9477 7.44926 10.5 8.00154 10.5Z" fill="#A5B1CA"/>
</svg>
