<svg width="21" height="21" viewBox="0 0 21 21" fill="none" xmlns="http://www.w3.org/2000/svg">
<path d="M1.51801 4.9024L1.51801 4.90235C1.5524 3.58503 2.25356 2.59805 3.25026 2.04322C4.22607 1.49897 5.46611 1.37377 6.64511 1.67199C6.93729 1.74565 7.21164 1.87713 7.45182 2.05863C7.692 2.24013 7.89311 2.46794 8.04316 2.72852L8.04317 2.72855L9.1252 4.60882L9.12521 4.60883C9.47438 5.21576 9.58937 5.92882 9.44858 6.61426C9.30778 7.2997 8.92089 7.91032 8.36058 8.33165L7.69159 8.83524L7.69159 8.83525C7.40183 9.05334 7.29428 9.35108 7.34825 9.58845L7.34827 9.58856C7.5481 10.4721 7.989 11.2898 8.60309 11.8909L8.6033 11.8911C8.75556 12.041 9.04174 12.1061 9.37469 11.9798L1.51801 4.9024ZM1.51801 4.9024C1.46632 6.92015 1.93534 9.62081 3.78812 12.7849M1.51801 4.9024L3.78812 12.7849M14.863 16.6529C14.9708 16.3626 15.0142 16.0524 14.99 15.7437C14.9658 15.4351 14.8746 15.1353 14.7228 14.8652L14.7228 14.8652L13.6609 12.9772C13.3226 12.3751 12.7783 11.9145 12.1275 11.6795C11.4767 11.4445 10.7627 11.4507 10.1161 11.697L10.1161 11.697L9.37485 11.9798L14.7692 16.6181M14.863 16.6529L14.7692 16.6181M14.863 16.6529C14.863 16.6529 14.863 16.6529 14.863 16.6529L14.7692 16.6181M14.863 16.6529C14.4419 17.7874 13.63 18.7067 12.6235 19.1683C11.5999 19.6378 10.3997 19.6181 9.31601 18.8978M14.7692 16.6181C14.3563 17.7307 13.5614 18.6281 12.5818 19.0774C11.5877 19.5333 10.4245 19.5145 9.37137 18.8145M9.31601 18.8978C9.31603 18.8978 9.31605 18.8978 9.31606 18.8978L9.37137 18.8145M9.31601 18.8978C7.63576 17.7823 5.61587 15.9074 3.78812 12.7849M9.31601 18.8978L9.37137 18.8145M9.37137 18.8145L3.78812 12.7849M3.84214 3.09901C3.21542 3.44858 2.78803 4.02852 2.73569 4.83491H2.83493L2.83421 4.86246M3.84214 3.09901L2.73016 5.03491H2.73117H2.73228V4.93491L2.83113 4.9375C2.83113 4.9375 2.83113 4.9375 2.83113 4.93749C2.83179 4.91226 2.83282 4.88725 2.83421 4.86246M3.84214 3.09901C4.51228 2.72518 5.42732 2.61092 6.34682 2.84387L3.84214 3.09901ZM2.83421 4.86246L2.83225 4.93752C2.78599 6.70795 3.19301 9.16775 4.92139 12.1248L4.92144 12.1249C6.65032 15.0757 8.53103 16.8028 10.0445 17.8083L10.0446 17.8083C10.7253 18.2616 11.4398 18.2697 12.0748 17.9782C12.7271 17.6787 13.3166 17.0472 13.6313 16.1984L13.6313 16.1984C13.7157 15.9708 13.6959 15.7175 13.5767 15.5057L13.5767 15.5056L12.5158 13.6165C12.5158 13.6165 12.5158 13.6165 12.5158 13.6165C12.3316 13.2887 12.0352 13.0379 11.6806 12.91C11.326 12.7821 10.937 12.7856 10.5848 12.9199C10.5848 12.9199 10.5848 12.9199 10.5848 12.9199L9.84339 13.2028L9.84338 13.2028C9.17235 13.4587 8.29945 13.4285 7.68289 12.8259L7.68285 12.8259C6.87308 12.0336 6.31774 10.9832 6.06674 9.87679C5.87339 9.025 6.29909 8.24252 6.90124 7.79017L7.57019 7.28661C7.57019 7.28661 7.57019 7.28661 7.57019 7.28661C7.87503 7.0571 8.08533 6.72474 8.16178 6.35189C8.23823 5.97904 8.1756 5.59118 7.9856 5.261L7.98558 5.26096L6.90469 3.38074C6.90468 3.38072 6.90468 3.38071 6.90467 3.3807C6.84224 3.27224 6.75853 3.1774 6.65851 3.10183C6.55848 3.02625 6.44417 2.97149 6.32242 2.94085L6.32226 2.94081C5.42427 2.7133 4.53592 2.82649 3.89085 3.18634L3.89085 3.18635C3.28592 3.52376 2.8781 4.08152 2.83421 4.86246ZM13.5798 1.62159L13.5799 1.62159L14.0062 1.85785C14.0062 1.85785 14.0062 1.85786 14.0062 1.85787C15.5131 2.69196 16.795 3.8773 17.7421 5.31259C18.6893 6.7479 19.2736 8.39045 19.4451 10.0998L19.4451 10.1L19.4794 10.446C19.4917 10.5328 19.4865 10.6212 19.464 10.7059C19.4412 10.7914 19.4013 10.8714 19.3467 10.9411C19.2921 11.0108 19.2239 11.0687 19.1463 11.1114C19.0687 11.154 18.9832 11.1806 18.895 11.1894C18.8068 11.1983 18.7178 11.1892 18.6332 11.1628C18.5486 11.1364 18.4702 11.0932 18.4028 11.0358C18.3354 10.9784 18.2803 10.9079 18.2409 10.8286C18.2019 10.7501 18.1791 10.6645 18.1739 10.577L18.1385 10.2298L18.1385 10.2296C17.988 8.73103 17.4756 7.29101 16.6451 6.03263C15.8146 4.77425 14.6907 3.73491 13.3694 3.00347L13.3693 3.0034L12.9419 2.76606L13.5798 1.62159ZM13.5798 1.62159C13.4277 1.53727 13.2482 1.51666 13.0808 1.56424M13.5798 1.62159L13.0808 1.56424M13.0808 1.56424C12.9134 1.61183 12.7718 1.72376 12.6871 1.87553M13.0808 1.56424L12.6871 1.87553M12.6871 1.87553C12.6024 2.02732 12.5816 2.20646 12.6295 2.37352M12.6871 1.87553L12.6295 2.37352M12.6295 2.37352C12.6773 2.54054 12.7897 2.68168 12.9418 2.76601L12.6295 2.37352ZM12.1411 4.63033L12.0496 4.78199H12.0755C12.0668 4.81113 12.0602 4.8409 12.0558 4.87109C12.0431 4.9562 12.0474 5.04296 12.0684 5.12641C12.0894 5.20985 12.1267 5.28834 12.1781 5.35739C12.2295 5.42636 12.2939 5.48456 12.3678 5.52869C12.3679 5.52874 12.368 5.52879 12.3681 5.52884L12.5057 5.61181L12.506 5.61199C13.2536 6.05906 13.8948 6.66252 14.3853 7.38064C14.8759 8.09877 15.2042 8.91445 15.3474 9.77132L15.3475 9.77151L15.3974 10.0665C15.4099 10.1525 15.4394 10.2351 15.4842 10.3096C15.5293 10.3845 15.589 10.4496 15.6596 10.5011C15.7303 10.5526 15.8106 10.5895 15.8957 10.6097C15.9809 10.6298 16.0692 10.6327 16.1555 10.6183C16.2418 10.604 16.3244 10.5725 16.3983 10.5258C16.4723 10.4791 16.5362 10.4182 16.5862 10.3465C16.6362 10.2748 16.6713 10.1939 16.6895 10.1085C16.7076 10.0235 16.7085 9.93575 16.6922 9.8504L16.6435 9.55548L16.6434 9.55528C16.4686 8.51116 16.0683 7.51734 15.4702 6.64254C14.8722 5.76773 14.0907 5.0328 13.1797 4.48854L13.1795 4.48844L13.0417 4.4065C13.0417 4.40649 13.0417 4.40649 13.0417 4.40649C12.8925 4.31717 12.7139 4.29059 12.545 4.33252C12.3762 4.37447 12.2309 4.48154 12.1411 4.63033Z" fill="#7787A5" stroke="#7787A5" stroke-width="0.2"/>
</svg>
