<svg width="16" height="17" viewBox="0 0 16 17" fill="none" xmlns="http://www.w3.org/2000/svg">
<path fill-rule="evenodd" clip-rule="evenodd" d="M6.15909 14.6875C6.15909 14.9982 6.41093 15.25 6.72159 15.25H14.1875C15.1195 15.25 15.875 14.4945 15.875 13.5625V2.3125C15.875 1.38052 15.1195 0.625 14.1875 0.625H2.9375C2.00552 0.625 1.25 1.38052 1.25 2.3125V9.77841C1.25 10.0891 1.50184 10.3409 1.8125 10.3409C2.12316 10.3409 2.375 10.0891 2.375 9.77841V2.3125C2.375 2.00184 2.62684 1.75 2.9375 1.75H14.1875C14.4982 1.75 14.75 2.00184 14.75 2.3125V13.5625C14.75 13.8732 14.4982 14.125 14.1875 14.125H6.72159C6.41093 14.125 6.15909 14.3768 6.15909 14.6875Z" fill="#2373BA"/>
<path fill-rule="evenodd" clip-rule="evenodd" d="M11.375 5.6875C11.375 5.37684 11.1232 5.125 10.8125 5.125H5.1875C4.87684 5.125 4.625 5.37684 4.625 5.6875C4.625 5.99816 4.87684 6.25 5.1875 6.25H9.4545L0.289752 15.4148C0.0700826 15.6344 0.0700826 15.9906 0.289752 16.2102C0.509423 16.4299 0.865577 16.4299 1.08525 16.2102L10.25 7.0455V11.3125C10.25 11.6232 10.5018 11.875 10.8125 11.875C11.1232 11.875 11.375 11.6232 11.375 11.3125V5.6875Z" fill="#2373BA"/>
</svg>
