<svg width="60" height="78" viewBox="0 0 60 78" fill="none" xmlns="http://www.w3.org/2000/svg">
<path d="M42.5682 36.382C40.1096 36.382 39.1801 39.4618 39.1426 39.5939C38.8607 40.5588 38.0081 41.3431 36.9594 41.2241C35.9504 41.2175 35.0671 40.5501 34.7983 39.5785C34.7652 39.4618 33.8357 36.382 31.3771 36.382C29.1829 36.382 28.0351 38.3029 28.0351 40.2019C28.0351 42.8894 30.4651 45.0594 35.5209 49.3245C35.9902 49.721 36.4749 50.1307 36.9727 50.5537C37.4706 50.1307 37.9552 49.7233 38.4223 49.3267C41.8267 46.4555 45.9102 43.2421 45.9102 40.2019C45.9102 38.3029 44.7624 36.382 42.5682 36.382Z" fill="#4789D1"/>
<path d="M59.5312 43.1494C59.5312 33.2376 53.7541 24.5462 44.9158 20.5782C45.5768 19.3157 45.9961 17.9178 45.9961 16.425C45.9961 12.5455 43.5243 9.11767 39.8454 7.89289L36.9727 6.93234C33.3433 5.72531 29.9972 3.65488 27.2905 0.951008C26.8694 0.528711 26.28 0.288086 25.6934 0.288086H12.1582C11.1867 0.288086 10.3252 0.90935 10.019 1.83019L7.67942 8.84892C6.09325 13.6052 6.62864 18.8197 9.14437 23.1529C12.006 28.081 11.1822 34.3749 7.09335 38.8183C3.08634 43.1759 0.878906 48.8354 0.878906 54.7548C0.878906 59.4185 2.24475 63.9323 4.83102 67.8075L10.2812 76.2835C10.6997 76.9114 11.4047 77.2881 12.1581 77.2881H39.2284C40.4753 77.2881 41.4842 76.2791 41.4842 75.0322C41.4842 72.4026 40.9437 69.6051 40.0296 67.2969C51.3202 64.8514 59.5312 55.0202 59.5312 43.1494ZM41.3325 52.7743C40.427 53.5387 39.4621 54.3538 38.451 55.2306C38.0258 55.5984 37.4993 55.7813 36.9728 55.7813C36.4463 55.7813 35.9198 55.5984 35.4946 55.2306C34.4813 54.3516 33.5164 53.5387 32.6109 52.772C27.3347 48.322 23.5235 45.1055 23.5235 40.2018C23.5234 35.5293 26.9733 31.8701 31.3771 31.8701C33.8554 31.8701 35.6927 33.0024 36.9727 34.4278C38.2526 33.0024 40.09 31.8701 42.5682 31.8701C46.972 31.8701 50.4219 35.5293 50.4219 40.2018C50.4219 45.465 45.7691 49.0321 41.3325 52.7743Z" fill="#4789D1"/>
</svg>
