<svg width="70" height="71" viewBox="0 0 70 71" fill="none" xmlns="http://www.w3.org/2000/svg">
<g clip-path="url(#clip0_176_6186)">
<path d="M34.7864 0.430664C41.6912 0.430664 46.2944 8.59223 45.1436 19.0857C43.9928 29.5791 39.3896 36.5747 48.596 38.9066C55.4171 40.6343 69.3103 44.7363 69.3103 58.7275C69.3103 61.6987 67.0087 70.3869 55.5007 70.3869C41.6912 70.3869 39.3896 54.0638 24.4294 65.7232C22.0019 67.6149 16.7564 70.8449 11.7707 70.3869C5.83234 69.8413 0.262695 67.0688 0.262695 57.5616C0.262695 45.1324 10.6199 45.9022 10.6199 35.4088C10.6199 28.4132 0.262695 25.3753 0.262695 17.9197C0.262695 10.9241 7.16747 12.09 16.3738 12.09C24.4293 12.09 27.8817 0.430664 34.7864 0.430664Z" fill="#4789D1"/>
<path d="M60.1035 15.6362C64.7067 15.6362 69.3099 17.9681 69.3099 27.2956C69.3099 36.6231 58.3552 32.7515 55.5004 28.413C50.8973 21.4174 55.5005 15.6362 60.1035 15.6362Z" fill="#4789D1"/>
</g>
<defs>
<clipPath id="clip0_176_6186">
<rect width="69.0909" height="70" fill="white" transform="translate(0.241211 0.430664)"/>
</clipPath>
</defs>
</svg>
