<svg width="72" height="72" viewBox="0 0 72 72" fill="none" xmlns="http://www.w3.org/2000/svg">
<mask id="mask0_176_6134" style="mask-type:luminance" maskUnits="userSpaceOnUse" x="0" y="0" width="72" height="72">
<path d="M71.1351 0.838867H0.911133V71.0629H71.1351V0.838867Z" fill="white"/>
<path d="M69.0781 35.9507C69.0781 54.2064 54.279 69.0054 36.0234 69.0054C17.7678 69.0054 2.96875 54.2064 2.96875 35.9507C2.96875 17.6951 17.7678 2.89606 36.0234 2.89606C54.279 2.89606 69.0781 17.6951 69.0781 35.9507Z" fill="white"/>
<path fill-rule="evenodd" clip-rule="evenodd" d="M63.8286 5.23597L5.30859 63.756L8.21812 66.6655L66.7382 8.14549L63.8286 5.23597Z" fill="black"/>
<path d="M46.533 44.9078L36.0233 50.9756L25.5137 44.9078V32.7722L36.0233 26.7044L46.533 32.7722V44.9078Z" fill="white"/>
<path fill-rule="evenodd" clip-rule="evenodd" d="M36.023 53.3511L48.5901 46.0955V31.5843L36.023 24.3287L23.4561 31.5843V46.0955L36.023 53.3511ZM36.023 48.5998L27.5707 43.7199V33.9599L36.023 29.0799L44.4754 33.9599V43.7199L36.023 48.5998Z" fill="black"/>
<path fill-rule="evenodd" clip-rule="evenodd" d="M33.9658 26.7041H38.0805V19.648L45.6752 15.2633L43.6179 11.6998L33.9658 17.2724V26.7041Z" fill="black"/>
<path fill-rule="evenodd" clip-rule="evenodd" d="M33.9658 19.648V26.7041H38.0805V17.2724L28.4284 11.6998L26.3711 15.2633L33.9658 19.648Z" fill="black"/>
<path fill-rule="evenodd" clip-rule="evenodd" d="M38.0805 61.0503V50.9752H33.9658V61.0503H38.0805Z" fill="black"/>
</mask>
<g mask="url(#mask0_176_6134)">
<mask id="mask1_176_6134" style="mask-type:luminance" maskUnits="userSpaceOnUse" x="0" y="0" width="72" height="72">
<path d="M0.911133 0.838509H71.1351V71.0625H0.911133V0.838509Z" fill="white"/>
</mask>
<g mask="url(#mask1_176_6134)">
<path d="M69.0781 35.9507C69.0781 54.2064 54.279 69.0054 36.0234 69.0054C17.7678 69.0054 2.96875 54.2064 2.96875 35.9507C2.96875 17.6951 17.7678 2.89606 36.0234 2.89606C54.279 2.89606 69.0781 17.6951 69.0781 35.9507Z" fill="#4789D1"/>
<path fill-rule="evenodd" clip-rule="evenodd" d="M0.911133 35.9505C0.911133 55.3424 16.6313 71.0625 36.0231 71.0625C55.415 71.0625 71.1351 55.3424 71.1351 35.9505C71.1351 16.5586 55.415 0.838509 36.0231 0.838509C16.6313 0.838509 0.911133 16.5586 0.911133 35.9505ZM36.0231 66.9478C18.9037 66.9478 5.02582 53.0699 5.02582 35.9505C5.02582 18.8311 18.9037 4.95319 36.0231 4.95319C53.1425 4.95319 67.0204 18.8311 67.0204 35.9505C67.0204 53.0699 53.1425 66.9478 36.0231 66.9478Z" fill="#4789D1"/>
<path fill-rule="evenodd" clip-rule="evenodd" d="M63.8286 5.23597L5.30859 63.756L8.21812 66.6655L66.7382 8.14549L63.8286 5.23597Z" fill="white"/>
<path d="M46.533 44.9073L36.0233 50.9751L25.5137 44.9073V32.7717L36.0233 26.7039L46.533 32.7717V44.9073Z" fill="#4789D1"/>
<path fill-rule="evenodd" clip-rule="evenodd" d="M36.023 53.3506L48.5901 46.095V31.5838L36.023 24.3282L23.4561 31.5838V46.095L36.023 53.3506ZM36.023 48.5993L27.5707 43.7194V33.9594L36.023 29.0794L44.4754 33.9594V43.7194L36.023 48.5993Z" fill="white"/>
<path fill-rule="evenodd" clip-rule="evenodd" d="M33.9658 26.7041H38.0805V19.648L45.6752 15.2633L43.6179 11.6998L33.9658 17.2724V26.7041Z" fill="white"/>
<path fill-rule="evenodd" clip-rule="evenodd" d="M33.9658 19.648V26.7041H38.0805V17.2724L28.4284 11.6998L26.3711 15.2633L33.9658 19.648Z" fill="white"/>
<path fill-rule="evenodd" clip-rule="evenodd" d="M38.0805 61.0503V50.9752H33.9658V61.0503H38.0805Z" fill="white"/>
</g>
</g>
</svg>
