<svg width="74" height="75" viewBox="0 0 74 75" fill="none" xmlns="http://www.w3.org/2000/svg">
<path d="M39.168 31.1186V19.8794H34.832V31.1186C32.314 32.0166 30.4961 34.4004 30.4961 37.2231C30.4961 37.7728 30.5853 38.2979 30.7142 38.8081L22.7897 44.0913L25.1947 47.6988L33.1224 42.4135C34.2082 43.2274 35.5415 43.7271 37 43.7271C40.5864 43.7271 43.5039 40.8095 43.5039 37.2231C43.5039 34.4004 41.686 32.0166 39.168 31.1186Z" fill="#4789D1"/>
<path d="M73.7205 32.6755C71.4531 14.2563 55.5844 0.223145 37 0.223145C24.7883 0.223145 13.6478 6.22798 6.75004 16.1616L0 11.2075V35.665L24.602 29.5506L17.1749 23.9803C21.5892 17.3939 29.0226 13.3755 37 13.3755C49.3197 13.3755 59.5223 22.6126 60.7312 34.8603L60.9662 37.2421L73.966 34.6719L73.7205 32.6755Z" fill="#4789D1"/>
<path d="M49.398 44.8957L56.8251 50.466C52.4108 57.0524 44.9774 61.0708 37 61.0708C24.5092 61.0708 14.2333 51.429 13.2328 39.1921L13.0233 36.6473L0.0423477 39.8548L0.277355 41.7581C2.5384 60.1837 18.4092 74.2231 37 74.2231C49.2117 74.2231 60.3522 68.2183 67.25 58.2847L74 63.2388V38.7813L49.398 44.8957Z" fill="#4789D1"/>
</svg>
