<svg width="85" height="85" viewBox="0 0 85 85" fill="none" xmlns="http://www.w3.org/2000/svg">
<g clip-path="url(#clip0_176_6353)">
<path d="M28.2754 52.8467C31.1749 52.8467 33.5254 50.4962 33.5254 47.5967C33.5254 44.6972 31.1749 42.3467 28.2754 42.3467C25.3759 42.3467 23.0254 44.6972 23.0254 47.5967C23.0254 50.4962 25.3759 52.8467 28.2754 52.8467Z" fill="#4789D1"/>
<path d="M78.2589 38.7172C78.6579 35.2732 79.0254 31.3497 79.0254 28.6512C79.0254 9.30668 56.4854 2.09668 42.2754 2.09668C33.0564 2.09668 26.4029 7.04218 24.1664 8.96368C17.1664 9.36618 5.52539 13.8217 5.52539 28.6512C5.52539 31.3882 5.88939 35.2942 6.28489 38.7207C2.73939 40.1697 0.275391 43.5997 0.275391 47.5967C0.275391 52.6507 4.20589 56.7632 9.16189 57.1482C13.9044 70.9137 26.9419 80.8467 42.2754 80.8467C57.6089 80.8467 70.6464 70.9172 75.3889 57.1482C80.3484 56.7632 84.2754 52.6507 84.2754 47.5967C84.2754 43.5962 81.8114 40.1662 78.2589 38.7172ZM70.8879 53.9912C70.8879 53.9982 70.8809 54.0017 70.8809 54.0087V54.0192C67.2899 66.4617 55.8379 75.5967 42.2754 75.5967C27.4879 75.5967 15.2169 64.7362 12.9069 50.5682L16.3999 38.3497C19.5184 37.3592 26.5044 34.5557 29.5634 28.6372C34.2709 33.0857 44.8199 38.5457 68.2944 38.8362L71.6474 50.5507C71.4584 51.7197 71.2099 52.8677 70.8879 53.9912Z" fill="#4789D1"/>
<path d="M56.2754 52.8467C59.1749 52.8467 61.5254 50.4962 61.5254 47.5967C61.5254 44.6972 59.1749 42.3467 56.2754 42.3467C53.3759 42.3467 51.0254 44.6972 51.0254 47.5967C51.0254 50.4962 53.3759 52.8467 56.2754 52.8467Z" fill="#4789D1"/>
<path d="M49.2022 60.5815C45.3837 64.274 39.1677 64.274 35.3492 60.5815C34.3097 59.584 32.6437 59.605 31.6357 60.6515C30.6277 61.6945 30.6592 63.3535 31.7022 64.365C34.6177 67.179 38.4467 68.5825 42.2757 68.5825C46.1047 68.5825 49.9337 67.179 52.8492 64.365C53.8922 63.357 53.9202 61.6945 52.9157 60.6515C51.9077 59.605 50.2452 59.584 49.2022 60.5815Z" fill="#4789D1"/>
</g>
<defs>
<clipPath id="clip0_176_6353">
<rect width="84" height="84" fill="white" transform="translate(0.275391 0.34668)"/>
</clipPath>
</defs>
</svg>
