<svg width="68" height="80" viewBox="0 0 68 80" fill="none" xmlns="http://www.w3.org/2000/svg">
<path d="M15.2243 32.1042L50.0428 42.1664L52.3688 36.9566C41.1793 31.0822 29.5438 26.6493 17.755 23.7672C16.8319 26.4885 16.7905 26.9038 15.2243 32.1042ZM49.2661 43.9104L14.6593 33.9094C13.7267 36.7274 14.686 33.8281 11.1803 44.4264C11.0272 44.8784 10.8731 45.3106 10.7138 45.7295L46.0216 51.1743L49.2661 43.9104ZM7.07779 53.0836C6.48593 54.0753 5.92763 55.0114 5.46316 55.9992L0.871027 65.7732C0.493146 66.5759 0.833786 67.5505 1.62922 67.9433C1.75417 68.0054 24.2869 79.1368 24.613 79.2932C25.4338 79.699 26.4263 79.3524 26.8159 78.5231C28.1172 75.7537 30.2013 73.4749 32.8448 71.932C40.5659 67.4266 63.1145 55.0166 65.4679 54.1026L65.433 54.0384C67.21 53.087 67.993 50.9578 67.2536 49.0797C66.4426 47.0179 64.105 46.0295 62.0646 46.8699L46.953 53.0944C46.8654 53.1307 46.602 53.1766 46.4464 53.1535L9.98852 47.5314C8.97832 49.8873 7.98422 51.5639 7.07779 53.0836ZM36.4069 2.73558C29.3413 21.253 29.9068 19.6526 29.7685 20.0122C29.5808 20.5001 29.034 20.7433 28.5462 20.5556C28.0567 20.3675 27.8155 19.818 28.0034 19.334C28.0511 19.2079 32.2439 8.1295 31.9767 8.83539C32.7498 6.76277 31.7477 4.35092 29.4429 3.5523C27.4213 2.8528 25.1971 3.85338 24.3797 5.83078C22.3377 10.7691 20.2551 16.4875 18.3648 21.9834C30.2108 24.8939 41.8973 29.3477 53.1393 35.2394L62.2815 14.7627C64.5227 9.73992 56.5484 6.40909 54.6047 11.621C53.9314 13.4252 57.044 5.08515 48.0192 29.2662C47.8364 29.7549 47.2917 30.0039 46.8029 29.8217C46.3128 29.6394 46.0664 29.093 46.2474 28.6047L54.8132 5.63824C55.6154 3.4956 54.489 1.08396 52.2818 0.357162C50.2535 -0.309489 48.0447 0.725518 47.2543 2.71532C46.3892 4.88669 50.3881 -5.15062 38.7939 23.9514C38.6021 24.4371 38.0532 24.6752 37.5669 24.4833C37.0818 24.2915 36.8417 23.7444 37.035 23.2563C40.749 13.8253 36.127 25.5253 43.9715 5.69162C44.7698 3.54764 43.6585 1.1529 41.4455 0.411548C39.4163 -0.26752 37.2013 0.759038 36.4069 2.73558Z" fill="#4789D1"/>
</svg>
